<mxfile host="app.diagrams.net" modified="2023-07-26T14:28:49.012Z" agent="Mozilla/5.0 (Macintosh; Intel Mac OS X 10_15_7) AppleWebKit/537.36 (KHTML, like Gecko) Chrome/115.0.0.0 Safari/537.36" version="21.6.5" etag="7wATroeEYcgeEPZ6-lan" type="github">
  <diagram name="Page-1" id="qgvOo3gNmlNZYH5rfSKG">
    <mxGraphModel>
      <root>
        <mxCell id="0" />
        <mxCell id="1" parent="0" />
      </root>
    </mxGraphModel>
  </diagram>
</mxfile>
